<svg width="120" height="148" viewBox="0 0 120 148" fill="none" xmlns="http://www.w3.org/2000/svg">
<g filter="url(#filter0_d_2234_11623)">
<path fill-rule="evenodd" clip-rule="evenodd" d="M74.2208 49.8869L74.2239 49.886C74.2228 49.8863 74.2218 49.8866 74.2208 49.8869ZM74.4681 50.5824C72.9331 51.0372 71.3154 50.177 70.8549 48.6611C70.3944 47.1452 71.2655 45.5477 72.8005 45.0929L90.2109 39.9348C90.351 39.8933 90.4918 39.8627 90.6323 39.8426L101.387 36.278C106.351 34.6326 107.682 32.6218 106.016 27.7194C104.35 22.817 101.068 22.7689 96.1041 24.4143L50.5087 37.6058C48.9879 38.1099 45.8295 35.0695 46.5439 33.6512L53.6324 19.502C55.9594 14.882 54.0539 9.27534 49.3757 6.9773C45.0723 4.86583 39.8472 6.27288 37.2292 10.2551L16.6159 41.6107C16.5556 41.7024 16.5007 41.7975 16.4514 41.8954C12.3751 49.9922 11.4222 59.6342 14.5671 68.8877C20.8576 87.3963 41.1515 97.3651 59.8933 91.153L80.8124 84.2193C83.5096 83.3253 85.5305 81.3502 86.5465 78.9465C87.2531 77.2747 87.4737 75.3956 87.0977 73.5285L74.5187 77.5037C72.9923 77.9861 71.359 77.1552 70.8706 75.6478C70.3822 74.1405 71.2236 72.5275 72.7499 72.0452L84.2362 68.4153C85.1811 67.5102 85.92 66.4234 86.4134 65.2336C87.1065 63.5623 87.3153 61.6875 86.9303 59.8265L74.5187 63.7488C72.9923 64.2311 71.359 63.4002 70.8706 61.8929C70.3822 60.3855 71.2236 58.7726 72.7499 58.2902L84.2824 54.6457C84.9641 53.9781 85.5354 53.2148 85.9811 52.3863C86.8749 50.7251 87.2634 48.802 87.0228 46.8629L74.4681 50.5824ZM58.1005 21.7461C58.0997 21.7478 58.0988 21.7495 58.098 21.7512L53.1448 31.638L94.6247 19.6373C97.1486 18.8064 100.397 17.9696 103.528 18.7655C107.344 19.7352 109.574 22.65 110.75 26.1105C111.697 28.8975 112.38 32.4189 110.543 35.6763C108.806 38.757 105.581 40.1554 102.96 41.0241L92.2054 44.5887C91.9933 44.659 91.7768 44.715 91.5574 44.7563C91.7742 45.223 91.92 45.7253 91.9847 46.2472C92.4058 49.6404 91.5808 52.9821 89.8054 55.7357C90.8419 56.4642 91.5679 57.563 91.8266 58.8136C92.6015 62.5593 91.8179 66.3205 89.874 69.3701C90.9708 70.1023 91.7375 71.2413 91.9993 72.5415C93.4168 79.5807 89.3479 86.6576 82.3855 88.9654L61.4665 95.8991C40.1618 102.961 17.0223 91.6498 9.83309 70.4967C6.23839 59.9198 7.332 48.8901 11.9855 39.647C12.1212 39.3773 12.2723 39.1159 12.4379 38.8641L33.0512 7.50842C37.0685 1.39766 45.0378 -0.720533 51.5782 2.48851L51.5802 2.48953C58.7203 5.99688 61.6908 14.6113 58.1005 21.7461ZM51.0094 35.9004L51.0142 35.8908C51.0126 35.894 51.011 35.8972 51.0094 35.9004ZM91.6313 44.7288C91.6301 44.7291 91.6289 44.7295 91.6277 44.7298L91.6313 44.7288Z" fill="url(#paint0_linear_2234_11623)"/>
</g>
<path d="M17.0809 135.948C14.0821 136.994 11.0206 137.017 7.65551 135.984C6.54655 135.644 5.42282 135.215 4.25781 134.649C-2.80872 131.225 0.0931735 122.45 4.52245 115.107L11.4057 117.219C12.0284 116.28 13.1205 113.812 13.6429 112.382L5.76549 109.965L7.59609 104L22.6244 108.611C21.8265 111.212 19.4253 117.127 17.8777 120.125L15.2463 124.883L8.86023 122.923C7.73855 125.215 5.93848 128.763 10.0775 130.409C10.307 130.48 10.5247 130.589 10.7541 130.659C12.5514 131.21 14.5512 131.238 16.4858 130.661L17.0809 135.948ZM20.7525 126.028L16.8137 124.82L18.6443 118.854L22.5831 120.063L26.2677 108.056L32.845 110.074L22.3778 144.184L15.8005 142.166L20.7525 126.028ZM34.4128 110.555L41.0666 112.597L30.2473 147.854L23.5936 145.812L34.4128 110.555Z" fill="url(#paint1_linear_2234_11623)"/>
<path d="M42.5755 146.019L42.5527 139.259L76.1525 139.145L76.1753 145.905L42.5755 146.019ZM76.1224 130.265C72.8935 133.556 69.4176 134.768 66.5376 134.778C62.9777 134.79 60.1716 132.999 58.7202 129.644C55.3734 133.536 51.1014 135.91 45.5879 137.849L42.2057 131.3C47.2796 129.483 51.5919 127.188 54.3375 122.939L45.0176 122.971L44.9946 116.171L55.1545 116.136L55.1403 111.936L63.1402 111.909L63.1544 116.109L73.3144 116.075L73.3374 122.875L63.2575 122.909C63.6261 125.468 64.9122 127.263 67.6322 127.254C68.7522 127.25 70.1105 126.766 71.9042 124.88L76.1224 130.265Z" fill="url(#paint2_linear_2234_11623)"/>
<path d="M87.3075 143.927L85.2313 137.242L93.9028 134.549L90.9843 125.152L98.8153 122.719L101.734 132.117L117.319 127.276L119.396 133.961L87.3075 143.927ZM108.093 107.817C112.294 110.826 113.865 118.716 108.59 129.108L101.345 126.415C104.007 121.903 104.614 115.767 102.119 114.071C100.784 113.145 98.7198 113.241 96.3896 113.965C92.7224 115.104 88.3151 117.771 84.535 120.704L80.3474 115.178C84.5055 111.708 89.7794 108.73 94.8219 107.164C99.9025 105.586 104.802 105.447 108.093 107.817Z" fill="url(#paint3_linear_2234_11623)"/>
<defs>
<filter id="filter0_d_2234_11623" x="7.30344" y="0.605935" width="104.789" height="97.7876" filterUnits="userSpaceOnUse" color-interpolation-filters="sRGB">
<feFlood flood-opacity="0" result="BackgroundImageFix"/>
<feColorMatrix in="SourceAlpha" type="matrix" values="0 0 0 0 0 0 0 0 0 0 0 0 0 0 0 0 0 0 127 0" result="hardAlpha"/>
<feOffset/>
<feGaussianBlur stdDeviation="0.197033"/>
<feComposite in2="hardAlpha" operator="out"/>
<feColorMatrix type="matrix" values="0 0 0 0 1 0 0 0 0 1 0 0 0 0 1 0 0 0 1 0"/>
<feBlend mode="normal" in2="BackgroundImageFix" result="effect1_dropShadow_2234_11623"/>
<feBlend mode="normal" in="SourceGraphic" in2="effect1_dropShadow_2234_11623" result="shape"/>
</filter>
<linearGradient id="paint0_linear_2234_11623" x1="-0.489984" y1="-19.3248" x2="127.945" y2="6.67532" gradientUnits="userSpaceOnUse">
<stop stop-color="#DB00FF"/>
<stop offset="1" stop-color="#7945EC"/>
</linearGradient>
<linearGradient id="paint1_linear_2234_11623" x1="-9.39947" y1="94.8104" x2="112.01" y2="157.22" gradientUnits="userSpaceOnUse">
<stop stop-color="#DB00FF"/>
<stop offset="1" stop-color="#7945EC"/>
</linearGradient>
<linearGradient id="paint2_linear_2234_11623" x1="-9.39947" y1="94.8104" x2="112.01" y2="157.22" gradientUnits="userSpaceOnUse">
<stop stop-color="#DB00FF"/>
<stop offset="1" stop-color="#7945EC"/>
</linearGradient>
<linearGradient id="paint3_linear_2234_11623" x1="-9.39947" y1="94.8104" x2="112.01" y2="157.22" gradientUnits="userSpaceOnUse">
<stop stop-color="#DB00FF"/>
<stop offset="1" stop-color="#7945EC"/>
</linearGradient>
</defs>
</svg>
